<svg width="62" height="62" viewBox="0 0 62 62" fill="none" xmlns="http://www.w3.org/2000/svg">
<rect width="62" height="62" rx="31" fill="#1EA7FF"/>
<path d="M27.6593 29.87C27.5593 29.86 27.4393 29.86 27.3293 29.87C24.9493 29.79 23.0593 27.84 23.0593 25.44C23.0593 22.99 25.0393 21 27.4993 21C29.9493 21 31.9393 22.99 31.9393 25.44C31.9293 27.84 30.0393 29.79 27.6593 29.87Z" stroke="white" stroke-width="1.5" stroke-linecap="round" stroke-linejoin="round"/>
<path d="M22.66 33.56C20.24 35.18 20.24 37.82 22.66 39.43C25.41 41.27 29.92 41.27 32.67 39.43C35.09 37.81 35.09 35.17 32.67 33.56C29.93 31.73 25.42 31.73 22.66 33.56Z" stroke="white" stroke-width="1.5" stroke-linecap="round" stroke-linejoin="round"/>
<path d="M43.5 31C43.5 31.75 43.29 32.46 42.92 33.06C42.71 33.42 42.44 33.74 42.13 34C41.43 34.63 40.51 35 39.5 35C38.04 35 36.77 34.22 36.08 33.06C35.71 32.46 35.5 31.75 35.5 31C35.5 29.74 36.08 28.61 37 27.88C37.69 27.33 38.56 27 39.5 27C41.71 27 43.5 28.79 43.5 31Z" stroke="white" stroke-width="1.5" stroke-miterlimit="10" stroke-linecap="round" stroke-linejoin="round"/>
<path d="M37.9399 31L38.9299 31.99L41.0599 30.02" stroke="white" stroke-width="1.5" stroke-linecap="round" stroke-linejoin="round"/>
</svg>
