<svg width="42" height="42" viewBox="0 0 42 42" fill="none" xmlns="http://www.w3.org/2000/svg">
<rect width="42" height="42" rx="21" fill="#2F80ED"/>
<path d="M16.7498 30.9167C16.7498 32.1067 16.934 33.2684 17.274 34.345C11.834 32.4609 7.72566 27.46 7.30066 21.6092C6.87566 15.39 10.4598 9.58169 16.254 7.14502C17.7557 6.52169 18.5207 6.97502 18.8465 7.30086C19.1582 7.61252 19.5973 8.36336 18.974 9.79419C18.3365 11.2675 18.0248 12.8259 18.0248 14.4409C18.039 17.3309 19.1723 20.0084 21.014 22.0625C18.4215 24.1309 16.7498 27.3325 16.7498 30.9167Z" fill="#292D32"/>
<path d="M34.0475 29.1033C31.2425 32.9142 26.7942 35.1525 22.0483 35.1525C21.8217 35.1525 21.595 35.1383 21.3683 35.1242C19.9517 35.0675 18.5775 34.7983 17.2742 34.345C16.9342 33.2683 16.75 32.1067 16.75 30.9167C16.75 27.3325 18.4217 24.1308 21.0142 22.0625C23.0967 24.4 26.0858 25.9158 29.3867 26.0575C30.2792 26.1 31.1717 26.0292 32.05 25.8733C33.6367 25.59 34.2742 26.185 34.5008 26.5675C34.7417 26.95 34.9967 27.7858 34.0475 29.1033Z" fill="#292D32"/>
</svg>
