<svg width="30" height="31" viewBox="0 0 30 31" fill="none" xmlns="http://www.w3.org/2000/svg">
<path d="M15.1134 7.96576C16.4764 7.96576 17.5814 6.86083 17.5814 5.49783C17.5814 4.13483 16.4764 3.02991 15.1134 3.02991C13.7504 3.02991 12.6455 4.13483 12.6455 5.49783C12.6455 6.86083 13.7504 7.96576 15.1134 7.96576Z" fill="#1EA7FF"/>
<path d="M20.6047 18.6148L17.4951 10.8162C17.1002 9.84137 16.1624 9.21205 15.1012 9.19971C14.0524 9.19971 13.1022 9.82903 12.7073 10.8162L9.59776 18.6148C9.28927 19.4293 9.89391 20.3054 10.7577 20.3054H12.6456V26.4752C12.6456 27.1539 13.2009 27.7091 13.8796 27.7091H16.3475C17.0262 27.7091 17.5815 27.1539 17.5815 26.4752V20.3054H19.4695C20.3332 20.3054 20.9379 19.4293 20.6047 18.6148Z" fill="#1EA7FF"/>
</svg>
