<svg width="18" height="17" viewBox="0 0 18 17" fill="none" xmlns="http://www.w3.org/2000/svg">
<circle cx="9.16539" cy="8.42516" r="8.42516" fill="#04CE00"/>
<path d="M9.86835 6.45299V6.77271C9.86835 8.48352 9.86835 10.1945 9.86835 11.9056C9.86835 12.2518 9.70176 12.4942 9.40299 12.6039C9.1137 12.7082 8.83638 12.6468 8.66031 12.4134C8.53815 12.2397 8.47122 12.0332 8.46828 11.8209C8.45332 10.1514 8.4598 8.48203 8.4598 6.81261V6.49639C8.40006 6.53868 8.34262 6.58414 8.28772 6.63255C7.95155 6.96574 7.61986 7.30391 7.28119 7.6341C7.01334 7.89596 6.64824 7.89646 6.39136 7.64657C6.11155 7.37374 6.0921 7.0226 6.36742 6.74378C7.13222 5.96901 7.901 5.19906 8.67378 4.43393C8.98651 4.12469 9.32967 4.11771 9.64291 4.41947C10.4203 5.16864 11.1921 5.92362 11.9582 6.68443C12.2391 6.96324 12.2216 7.30989 11.9413 7.58572C11.6764 7.84558 11.3353 7.84957 11.0554 7.58572C10.7243 7.27149 10.4006 6.94928 10.0729 6.63106C10.021 6.58118 9.96462 6.53778 9.86835 6.45299Z" fill="white"/>
</svg>
