<svg width="62" height="62" viewBox="0 0 62 62" fill="none" xmlns="http://www.w3.org/2000/svg">
<rect width="62" height="62" rx="31" fill="#C6D7FF"/>
<path d="M27.4093 29.87C27.3093 29.86 27.1893 29.86 27.0793 29.87C24.6993 29.79 22.8093 27.84 22.8093 25.44C22.8093 22.99 24.7893 21 27.2493 21C29.6993 21 31.6893 22.99 31.6893 25.44C31.6793 27.84 29.7893 29.79 27.4093 29.87Z" stroke="white" stroke-width="1.5" stroke-linecap="round" stroke-linejoin="round"/>
<path d="M22.41 33.56C19.99 35.18 19.99 37.82 22.41 39.43C25.16 41.27 29.67 41.27 32.42 39.43C34.84 37.81 34.84 35.17 32.42 33.56C29.68 31.73 25.17 31.73 22.41 33.56Z" stroke="white" stroke-width="1.5" stroke-linecap="round" stroke-linejoin="round"/>
<path d="M43.75 31C43.75 31.32 43.71 31.63 43.63 31.93C43.54 32.33 43.38 32.72 43.17 33.06C42.48 34.22 41.21 35 39.75 35C38.72 35 37.79 34.61 37.09 33.97C36.79 33.71 36.53 33.4 36.33 33.06C35.96 32.46 35.75 31.75 35.75 31C35.75 29.92 36.18 28.93 36.88 28.21C37.61 27.46 38.63 27 39.75 27C40.93 27 42 27.51 42.72 28.33C43.36 29.04 43.75 29.98 43.75 31Z" stroke="white" stroke-width="1.5" stroke-miterlimit="10" stroke-linecap="round" stroke-linejoin="round"/>
<path d="M40.7799 29.9399L38.6699 32.0499" stroke="white" stroke-width="1.5" stroke-miterlimit="10" stroke-linecap="round" stroke-linejoin="round"/>
<path d="M38.6899 29.96L40.8099 32.0699" stroke="white" stroke-width="1.5" stroke-miterlimit="10" stroke-linecap="round" stroke-linejoin="round"/>
</svg>
