<svg width="11" height="25" viewBox="0 0 11 25" fill="none" xmlns="http://www.w3.org/2000/svg">
<path d="M2.91141 24.6868V16.0491H0.443481V8.64531C0.443481 7.96663 0.685338 7.38543 1.16905 6.90172C1.65276 6.418 2.23355 6.17656 2.91141 6.17738H7.84726C8.52593 6.17738 9.10713 6.41924 9.59084 6.90295C10.0746 7.38666 10.316 7.96745 10.3152 8.64531V16.0491H7.84726V24.6868H2.91141ZM5.37933 4.94342C4.70065 4.94342 4.11946 4.70156 3.63574 4.21785C3.15203 3.73414 2.91058 3.15335 2.91141 2.47549C2.91141 1.79682 3.15326 1.21562 3.63698 0.731906C4.12069 0.248193 4.70147 0.00674781 5.37933 0.00757045C6.05801 0.00757045 6.63921 0.249427 7.12292 0.73314C7.60663 1.21685 7.84808 1.79764 7.84726 2.47549C7.84726 3.15417 7.6054 3.73537 7.12169 4.21908C6.63797 4.7028 6.05719 4.94424 5.37933 4.94342Z" fill="#2F80ED"/>
</svg>
