<svg width="101" height="65" viewBox="0 0 101 65" fill="none" xmlns="http://www.w3.org/2000/svg">
<rect x="0.6604" y="0.223267" width="99.4385" height="64.2478" rx="32.1239" fill="white"/>
<path d="M47.9114 44.6868V36.0491H45.4435V28.6453C45.4435 27.9666 45.6853 27.3854 46.1691 26.9017C46.6528 26.418 47.2335 26.1766 47.9114 26.1774H52.8473C53.5259 26.1774 54.1071 26.4192 54.5908 26.903C55.0746 27.3867 55.316 27.9674 55.3152 28.6453V36.0491H52.8473V44.6868H47.9114ZM50.3793 24.9434C49.7007 24.9434 49.1195 24.7016 48.6357 24.2178C48.152 23.7341 47.9106 23.1534 47.9114 22.4755C47.9114 21.7968 48.1533 21.2156 48.637 20.7319C49.1207 20.2482 49.7015 20.0067 50.3793 20.0076C51.058 20.0076 51.6392 20.2494 52.1229 20.7331C52.6066 21.2169 52.8481 21.7976 52.8473 22.4755C52.8473 23.1542 52.6054 23.7354 52.1217 24.2191C51.638 24.7028 51.0572 24.9442 50.3793 24.9434Z" fill="#2F80ED"/>
</svg>
