<svg width="42" height="42" viewBox="0 0 42 42" fill="none" xmlns="http://www.w3.org/2000/svg">
<rect width="42" height="42" rx="21" fill="#407BFF"/>
<path d="M21.0002 30.9167C26.477 30.9167 30.9168 26.4769 30.9168 21C30.9168 15.5232 26.477 11.0834 21.0002 11.0834C15.5233 11.0834 11.0835 15.5232 11.0835 21C11.0835 26.4769 15.5233 30.9167 21.0002 30.9167Z" fill="white"/>
<path d="M20.9998 36.5266C20.2207 36.5266 19.5832 35.9458 19.5832 35.1666V35.0533C19.5832 34.2741 20.2207 33.6366 20.9998 33.6366C21.779 33.6366 22.4165 34.2741 22.4165 35.0533C22.4165 35.8325 21.779 36.5266 20.9998 36.5266ZM31.1148 32.5316C30.7465 32.5316 30.3923 32.39 30.109 32.1208L29.9248 31.9366C29.3723 31.3841 29.3723 30.4916 29.9248 29.9391C30.4773 29.3866 31.3698 29.3866 31.9223 29.9391L32.1065 30.1233C32.659 30.6758 32.659 31.5683 32.1065 32.1208C31.8373 32.39 31.4832 32.5316 31.1148 32.5316ZM10.8848 32.5316C10.5165 32.5316 10.1623 32.39 9.879 32.1208C9.3265 31.5683 9.3265 30.6758 9.879 30.1233L10.0632 29.9391C10.6157 29.3866 11.5082 29.3866 12.0607 29.9391C12.6132 30.4916 12.6132 31.3841 12.0607 31.9366L11.8765 32.1208C11.6073 32.39 11.239 32.5316 10.8848 32.5316ZM35.1665 22.4166H35.0532C34.274 22.4166 33.6365 21.7791 33.6365 21C33.6365 20.2208 34.274 19.5833 35.0532 19.5833C35.8323 19.5833 36.5265 20.2208 36.5265 21C36.5265 21.7791 35.9457 22.4166 35.1665 22.4166ZM6.9465 22.4166H6.83317C6.054 22.4166 5.4165 21.7791 5.4165 21C5.4165 20.2208 6.054 19.5833 6.83317 19.5833C7.61234 19.5833 8.3065 20.2208 8.3065 21C8.3065 21.7791 7.72567 22.4166 6.9465 22.4166ZM30.9307 12.4858C30.5623 12.4858 30.2082 12.3441 29.9248 12.075C29.3723 11.5225 29.3723 10.63 29.9248 10.0775L30.109 9.89329C30.6615 9.34079 31.554 9.34079 32.1065 9.89329C32.659 10.4458 32.659 11.3383 32.1065 11.8908L31.9223 12.075C31.6532 12.3441 31.299 12.4858 30.9307 12.4858ZM11.069 12.4858C10.7007 12.4858 10.3465 12.3441 10.0632 12.075L9.879 11.8766C9.3265 11.3241 9.3265 10.4316 9.879 9.87913C10.4315 9.32663 11.324 9.32663 11.8765 9.87913L12.0607 10.0633C12.6132 10.6158 12.6132 11.5083 12.0607 12.0608C11.7915 12.3441 11.4232 12.4858 11.069 12.4858ZM20.9998 8.30663C20.2207 8.30663 19.5832 7.72579 19.5832 6.94663V6.83329C19.5832 6.05413 20.2207 5.41663 20.9998 5.41663C21.779 5.41663 22.4165 6.05413 22.4165 6.83329C22.4165 7.61246 21.779 8.30663 20.9998 8.30663Z" fill="white"/>
</svg>
