<svg width="184" height="47" viewBox="0 0 184 47" fill="none" xmlns="http://www.w3.org/2000/svg">
<g clip-path="url(#clip0_0_10689)">
<path d="M40.1993 0.362951C40.1993 0.362951 15.3892 -0.658947 7.24871 6.91166C-0.891752 14.4823 -1.27806 27.4371 3.82957 34.8613C8.9372 42.2856 15.471 47.5718 28.4785 45.5528C41.486 43.5338 44.5747 32.3078 45.0496 28.5656C45.5253 24.824 44.9709 12.3715 40.1993 0.362951Z" fill="#2F80ED"/>
<path d="M27.7379 15.6592C28.0306 15.6592 28.309 15.6623 28.5707 15.6673C30.0117 19.815 30.705 23.1604 30.6839 25.8447C30.6715 27.5041 30.3782 28.911 29.8133 30.0272C29.2279 31.183 28.3201 32.1026 27.0366 32.838C25.2761 33.8469 23.5108 34.3585 21.7894 34.3585C18.3752 34.3585 16.1094 32.3798 16.0146 32.2961L15.8013 32.1063L15.5625 31.9501C15.3815 31.8323 14.891 31.3963 14.3292 30.5921C13.8988 29.9763 13.2992 28.9613 12.8844 27.6244C12.5037 26.3972 12.3635 25.1682 12.4677 23.9727C12.588 22.5955 13.0407 21.2505 13.8133 19.9756C14.9313 18.1309 17.4991 17.1214 19.4554 16.5999C22.3748 15.8229 25.5707 15.6592 27.7379 15.6592ZM27.7379 11.8147C22.7078 11.8147 13.7804 12.614 10.5262 17.9833C5.8917 25.6302 10.6806 33.3546 13.4617 35.1695C14.5326 36.1208 17.5933 38.203 21.79 38.203C23.9206 38.203 26.3433 37.6666 28.9489 36.1735C37.0429 31.5346 34.9501 21.4179 31.3046 11.9579C31.3046 11.9586 29.8716 11.8147 27.7379 11.8147Z" fill="white"/>
<path d="M29.596 9.02311C30.7035 9.02311 31.8816 9.39702 33.097 10.1337C33.8504 10.5907 34.7446 11.8253 35.0434 13.5534C35.2016 14.4687 35.2952 16.2155 34.1431 17.6311C33.6073 18.2896 32.343 18.8855 30.6743 19.2669C28.9585 19.6588 27.1274 19.7704 25.775 19.7884C25.421 18.6846 25.0458 17.3074 24.8424 15.8992C24.6514 14.5797 24.6384 13.4493 24.804 12.5384C24.946 11.7571 25.2058 11.199 25.5983 10.8331C26.9042 9.61467 28.212 9.02311 29.596 9.02311ZM29.596 5.17859C27.3947 5.17859 25.1314 6.01198 22.9766 8.02043C18.3235 12.3573 22.6839 22.5521 23.0448 23.5523C23.0448 23.5523 23.9694 23.6348 25.3627 23.6348C28.6609 23.6348 34.5889 23.1722 37.1244 20.0581C40.6093 15.7771 38.7639 9.07396 35.0906 6.84661C33.3804 5.80983 31.5114 5.17859 29.596 5.17859Z" fill="white"/>
<path d="M36.5725 1.98752C37.6763 1.98752 38.5121 2.0055 38.9728 2.0179C41.3428 8.10589 42.4577 13.9985 42.9767 17.9026C43.595 22.5501 43.6415 26.4424 43.4133 28.2375C43.2787 29.2948 42.6431 33.0289 40.0989 36.68C38.8414 38.485 37.3011 39.9918 35.5208 41.1595C33.4002 42.5503 30.9118 43.4755 28.1245 43.9083C26.3889 44.178 24.7227 44.3145 23.1731 44.3145C19.0055 44.3145 15.4828 43.3533 12.4035 41.3753C9.84378 39.7314 7.55939 37.3782 5.21485 33.9702C2.86411 30.5529 1.76966 25.862 2.2124 21.0997C2.68801 15.9853 4.88125 11.3731 8.38782 8.11209C9.74643 6.84835 11.7369 5.75515 14.3028 4.86099C16.5153 4.09084 19.1773 3.46146 22.2138 2.99205C27.8721 2.11835 33.6389 1.98752 36.5725 1.98752ZM36.5725 1.36743C30.0579 1.36743 14.0814 1.97139 7.96616 7.6588C0.200231 14.8809 -0.168717 27.2398 4.70452 34.3224C8.86715 40.3732 14.0231 44.9352 23.1731 44.9352C24.7345 44.9352 26.4106 44.8025 28.2194 44.5216C40.6285 42.595 43.5751 31.8855 44.0284 28.3163C44.4817 24.7465 43.9527 12.8675 39.4007 1.41146C39.4007 1.41146 38.3311 1.36743 36.5725 1.36743Z" fill="#2F80ED"/>
</g>
<path d="M129.986 17.3829C129.986 17.3067 129.987 17.2293 129.98 17.1538C129.917 16.4009 129.426 15.8107 128.73 15.6466C128.004 15.4753 127.312 15.7779 126.912 16.4409C126.864 16.5216 126.81 16.5991 126.76 16.6766C123.559 14.8228 120.01 15.9085 118.157 18.0819C116.274 20.2915 116.005 23.5217 117.54 25.9623C118.338 27.2311 119.43 28.16 120.833 28.6995C122.829 29.4675 124.766 29.2765 126.666 28.2663C126.68 28.372 126.696 28.4337 126.695 28.4954C126.691 28.8774 126.698 29.2608 126.675 29.6421C126.577 31.3324 125.313 32.7293 123.632 32.9695C122.33 33.156 121.215 32.7693 120.328 31.7775C119.847 31.2386 119.131 31.0633 118.482 31.3246C117.847 31.5799 117.455 32.191 117.457 32.8967C117.457 33.3365 117.621 33.7041 117.905 34.027C118.318 34.4983 118.786 34.9106 119.321 35.2362C120.322 35.846 121.375 36.2943 122.586 36.2411C123.088 36.2188 123.592 36.2385 124.094 36.2365C124.192 36.2359 124.292 36.2372 124.388 36.2162C124.998 36.0842 125.594 35.9011 126.146 35.6051C128.615 34.2804 129.934 32.2048 129.971 29.4131C130.025 25.405 129.986 21.3936 129.986 17.3829ZM123.419 25.8671C121.45 25.917 119.901 24.4335 119.863 22.4872C119.826 20.6092 121.33 19.0594 123.234 19.0141C125.097 18.9701 126.667 20.489 126.691 22.4012C126.715 24.2871 125.226 25.8211 123.419 25.8671Z" fill="#2F80ED"/>
<path d="M83.6387 16.8574C83.5849 16.7642 83.5343 16.671 83.4785 16.5804C82.9882 15.7783 81.9326 15.5308 81.1607 16.0481C80.6244 16.4071 80.4189 16.9323 80.4189 17.5677C80.4229 23.1413 80.4209 28.715 80.4229 34.2886C80.4229 34.4521 80.4308 34.6175 80.459 34.7777C80.673 35.9979 82.1184 36.5356 83.0774 35.757C83.5087 35.4065 83.6879 34.9477 83.6879 34.4042C83.6873 32.4914 83.6873 30.5792 83.6886 28.6664C83.6886 28.5417 83.6984 28.417 83.7069 28.2292C84.8005 28.8725 85.9112 29.2644 87.1249 29.3123C88.3268 29.3596 89.4716 29.141 90.5475 28.587C91.6306 28.029 92.5095 27.2439 93.1725 26.2245C94.7735 23.7629 94.6343 20.4408 92.5981 18.0574C90.8199 15.9772 87.0809 14.6742 83.6387 16.8574ZM87.4571 26.0703C85.5594 26.042 83.9538 24.5802 83.9242 22.5387C83.896 20.5924 85.518 18.9875 87.4676 18.9914C89.4171 18.9954 91.0129 20.599 91.0083 22.5492C91.0043 24.4627 89.3797 26.0735 87.4571 26.0703Z" fill="#2F80ED"/>
<path d="M71.9458 17.7584C71.9458 17.6054 71.9425 17.4518 71.9241 17.3002C71.8237 16.4488 71.1462 15.8731 70.289 15.8672C69.4625 15.8613 68.7411 16.5991 68.7221 17.3363C68.7182 17.4997 68.7024 17.6632 68.7024 17.8273C68.7011 19.9475 68.6985 22.0678 68.7037 24.188C68.705 24.5969 68.6164 24.9698 68.3538 25.2875C67.7696 25.9951 67.0161 26.2439 66.1279 26.0634C65.3389 25.9032 64.504 25.2448 64.525 24.081C64.5637 21.9831 64.5361 19.8845 64.5361 17.7859C64.5361 17.677 64.5394 17.5673 64.5335 17.4584C64.4685 16.3438 63.348 15.6237 62.3141 16.0307C61.6938 16.2749 61.3019 16.8663 61.3013 17.5752C61.2993 19.7499 61.2901 21.9253 61.3052 24.1C61.3118 25.1149 60.7039 25.6997 60.0265 25.9689C58.6901 26.5006 57.0444 25.5973 57.0989 24.0022C57.1698 21.9279 57.1166 19.8497 57.116 17.7728C57.116 17.6638 57.1199 17.5536 57.1127 17.4453C57.0523 16.588 56.3926 15.9447 55.5622 15.9132C54.6616 15.8797 53.8864 16.6365 53.8936 17.5582C53.912 19.8313 53.8923 22.1045 53.9021 24.3777C53.908 25.7522 54.4522 26.9108 55.4362 27.8469C57.452 29.7636 60.5254 29.8627 62.6824 28.1075C62.7566 28.0471 62.836 27.9919 62.9167 27.9309C62.9929 27.9893 63.0533 28.034 63.1123 28.0812C64.3687 29.0947 65.7938 29.4938 67.3981 29.2936C69.6837 29.0081 71.9701 27.0434 71.949 24.1197C71.934 21.9988 71.9471 19.8786 71.9458 17.7584Z" fill="#2F80ED"/>
<path d="M114.67 22.4414C114.662 20.6749 114.076 19.1238 112.883 17.8149C111.03 15.7813 108.135 15.2575 105.783 16.4049C105.577 16.5054 105.375 16.6124 105.135 16.7351C105.066 16.6216 105.012 16.5283 104.955 16.4378C104.569 15.8247 103.882 15.5483 103.201 15.7321C102.479 15.9271 102 16.5231 101.999 17.2622C101.995 20.7038 101.992 24.1454 102 27.587C102.003 28.6708 103.082 29.4224 104.113 29.083C104.796 28.8585 105.217 28.2697 105.22 27.5116C105.225 26.1022 105.219 24.6929 105.224 23.2836C105.225 22.9783 105.235 22.6711 105.27 22.3685C105.36 21.5716 105.633 20.841 106.117 20.1977C107.176 18.7923 109.147 18.6525 110.402 19.8879C111.136 20.6106 111.47 21.5014 111.479 22.5136C111.493 24.1303 111.483 25.7478 111.483 27.3645C111.483 27.4846 111.48 27.6054 111.491 27.7249C111.593 28.9399 112.965 29.5465 113.946 28.911C114.468 28.5723 114.676 28.0682 114.674 27.4564C114.67 25.7845 114.679 24.1133 114.67 22.4414Z" fill="#2F80ED"/>
<path d="M77.8347 17.338C77.8347 17.2835 77.8361 17.2284 77.8334 17.1739C77.7717 16.0179 76.7471 15.2972 75.6449 15.628C74.9865 15.8256 74.4831 16.4603 74.4883 17.2028C74.5008 18.9186 74.4923 20.6352 74.4923 22.3511C74.4923 24.0236 74.4923 25.6962 74.4923 27.3681C74.4923 27.477 74.4857 27.5873 74.4969 27.6956C74.5632 28.3527 74.9071 28.8247 75.5064 29.078C76.0893 29.3242 76.663 29.271 77.1757 28.8706C77.6509 28.4997 77.8374 27.9976 77.8367 27.4048C77.8334 24.0492 77.8347 20.6936 77.8347 17.338Z" fill="#2F80ED"/>
<path d="M99.6067 17.3579C99.6067 17.2922 99.6087 17.2266 99.6047 17.161C99.5575 16.3641 99.0573 15.7556 98.3109 15.5849C97.5908 15.4201 96.8235 15.7582 96.4585 16.3956C96.3003 16.6713 96.2636 16.9693 96.2636 17.2798C96.2655 18.974 96.2649 20.6682 96.2649 22.3624C96.2649 23.7724 96.2649 25.1824 96.2649 26.5924C96.2649 26.9423 96.2511 27.2928 96.2688 27.6413C96.3029 28.3175 96.6508 28.8039 97.2593 29.0677C97.8633 29.3303 98.4573 29.2732 98.9818 28.8413C99.436 28.4671 99.6093 27.9702 99.6087 27.3912C99.6047 24.0474 99.6067 20.7023 99.6067 17.3579Z" fill="#2F80ED"/>
<path d="M76.1503 13.456C77.0745 13.4652 77.8162 12.7228 77.832 11.7723C77.8484 10.7863 77.1447 10.0269 76.1962 10.0164C75.1433 10.0045 74.4981 10.8349 74.479 11.6929C74.4541 12.8029 75.3645 13.4626 76.1503 13.456Z" fill="#2F80ED"/>
<path d="M97.9468 13.4585C98.8665 13.4512 99.603 12.701 99.6076 11.7511C99.6122 10.7665 98.8947 10.0149 97.9488 10.0168C96.9399 10.0188 96.2093 10.8111 96.2658 11.7491C96.2132 12.7843 97.1244 13.4644 97.9468 13.4585Z" fill="#2F80ED"/>
<path d="M142.958 25.7689H139.066L138.422 27.6309H136.364L139.878 17.8449H142.16L145.674 27.6309H143.602L142.958 25.7689ZM142.426 24.2009L141.012 20.1129L139.598 24.2009H142.426ZM146.483 23.7249C146.483 22.9409 146.637 22.2455 146.945 21.6389C147.263 21.0322 147.692 20.5655 148.233 20.2389C148.775 19.9122 149.377 19.7489 150.039 19.7489C150.543 19.7489 151.024 19.8609 151.481 20.0849C151.939 20.2995 152.303 20.5889 152.573 20.9529V17.2709H154.561V27.6309H152.573V26.4829C152.331 26.8655 151.99 27.1735 151.551 27.4069C151.113 27.6402 150.604 27.7569 150.025 27.7569C149.372 27.7569 148.775 27.5889 148.233 27.2529C147.692 26.9169 147.263 26.4455 146.945 25.8389C146.637 25.2229 146.483 24.5182 146.483 23.7249ZM152.587 23.7529C152.587 23.2769 152.494 22.8709 152.307 22.5349C152.121 22.1895 151.869 21.9282 151.551 21.7509C151.234 21.5642 150.893 21.4709 150.529 21.4709C150.165 21.4709 149.829 21.5595 149.521 21.7369C149.213 21.9142 148.961 22.1755 148.765 22.5209C148.579 22.8569 148.485 23.2582 148.485 23.7249C148.485 24.1915 148.579 24.6022 148.765 24.9569C148.961 25.3022 149.213 25.5682 149.521 25.7549C149.839 25.9415 150.175 26.0349 150.529 26.0349C150.893 26.0349 151.234 25.9462 151.551 25.7689C151.869 25.5822 152.121 25.3209 152.307 24.9849C152.494 24.6395 152.587 24.2289 152.587 23.7529ZM166.108 19.7629C167.06 19.7629 167.825 20.0569 168.404 20.6449C168.992 21.2235 169.286 22.0355 169.286 23.0809V27.6309H167.326V23.3469C167.326 22.7402 167.172 22.2782 166.864 21.9609C166.556 21.6342 166.136 21.4709 165.604 21.4709C165.072 21.4709 164.647 21.6342 164.33 21.9609C164.022 22.2782 163.868 22.7402 163.868 23.3469V27.6309H161.908V23.3469C161.908 22.7402 161.754 22.2782 161.446 21.9609C161.138 21.6342 160.718 21.4709 160.186 21.4709C159.644 21.4709 159.215 21.6342 158.898 21.9609C158.59 22.2782 158.436 22.7402 158.436 23.3469V27.6309H156.476V19.8749H158.436V20.8129C158.688 20.4862 159.01 20.2295 159.402 20.0429C159.803 19.8562 160.242 19.7629 160.718 19.7629C161.324 19.7629 161.866 19.8935 162.342 20.1549C162.818 20.4069 163.186 20.7709 163.448 21.2469C163.7 20.7989 164.064 20.4395 164.54 20.1689C165.025 19.8982 165.548 19.7629 166.108 19.7629ZM172.14 18.9509C171.794 18.9509 171.505 18.8435 171.272 18.6289C171.048 18.4049 170.936 18.1295 170.936 17.8029C170.936 17.4762 171.048 17.2055 171.272 16.9909C171.505 16.7669 171.794 16.6549 172.14 16.6549C172.485 16.6549 172.77 16.7669 172.994 16.9909C173.227 17.2055 173.344 17.4762 173.344 17.8029C173.344 18.1295 173.227 18.4049 172.994 18.6289C172.77 18.8435 172.485 18.9509 172.14 18.9509ZM173.106 19.8749V27.6309H171.146V19.8749H173.106ZM179.34 19.7629C180.264 19.7629 181.011 20.0569 181.58 20.6449C182.15 21.2235 182.434 22.0355 182.434 23.0809V27.6309H180.474V23.3469C180.474 22.7309 180.32 22.2595 180.012 21.9329C179.704 21.5969 179.284 21.4289 178.752 21.4289C178.211 21.4289 177.782 21.5969 177.464 21.9329C177.156 22.2595 177.002 22.7309 177.002 23.3469V27.6309H175.042V19.8749H177.002V20.8409C177.264 20.5049 177.595 20.2435 177.996 20.0569C178.407 19.8609 178.855 19.7629 179.34 19.7629Z" fill="#2F80ED"/>
<defs>
<clipPath id="clip0_0_10689">
<rect width="45.6279" height="46.2616" fill="white"/>
</clipPath>
</defs>
</svg>
