<svg width="53" height="62" viewBox="0 0 53 62" fill="none" xmlns="http://www.w3.org/2000/svg">
<rect x="0.00195312" width="52.6619" height="62" rx="26.331" fill="#2F80ED"/>
<path d="M26.6015 29.87C26.5015 29.86 26.3815 29.86 26.2715 29.87C23.8915 29.79 22.0015 27.84 22.0015 25.44C22.0015 22.99 23.9815 21 26.4415 21C28.8915 21 30.8815 22.99 30.8815 25.44C30.8715 27.84 28.9815 29.79 26.6015 29.87Z" stroke="white" stroke-width="1.5" stroke-linecap="round" stroke-linejoin="round"/>
<path d="M21.8151 33.56C19.3951 35.18 19.3951 37.82 21.8151 39.43C24.5651 41.27 29.0751 41.27 31.8251 39.43C34.2451 37.81 34.2451 35.17 31.8251 33.56C29.0851 31.73 24.5751 31.73 21.8151 33.56Z" stroke="white" stroke-width="1.5" stroke-linecap="round" stroke-linejoin="round"/>
</svg>
