<svg width="62" height="62" viewBox="0 0 62 62" fill="none" xmlns="http://www.w3.org/2000/svg">
<rect width="62" height="62" rx="31" fill="#2F80ED"/>
<path d="M31.0655 29.87C30.9655 29.86 30.8455 29.86 30.7355 29.87C28.3555 29.79 26.4655 27.84 26.4655 25.44C26.4655 22.99 28.4455 21 30.9055 21C33.3555 21 35.3455 22.99 35.3455 25.44C35.3355 27.84 33.4455 29.79 31.0655 29.87Z" stroke="white" stroke-width="1.5" stroke-linecap="round" stroke-linejoin="round"/>
<path d="M26.0662 33.56C23.6462 35.18 23.6462 37.82 26.0662 39.43C28.8162 41.27 33.3262 41.27 36.0762 39.43C38.4962 37.81 38.4962 35.17 36.0762 33.56C33.3362 31.73 28.8262 31.73 26.0662 33.56Z" stroke="white" stroke-width="1.5" stroke-linecap="round" stroke-linejoin="round"/>
<path d="M38.317 23C40.257 23 41.817 24.57 41.817 26.5C41.817 28.39 40.317 29.93 38.447 30C38.367 29.99 38.277 29.99 38.187 30" stroke="white" stroke-width="1.5" stroke-linecap="round" stroke-linejoin="round"/>
<path d="M40.2456 39C40.9656 38.85 41.6456 38.56 42.2056 38.13C43.7656 36.96 43.7656 35.03 42.2056 33.86C41.6556 33.44 40.9856 33.16 40.2756 33" stroke="white" stroke-width="1.5" stroke-linecap="round" stroke-linejoin="round"/>
<path d="M44.0358 23C45.9758 23 47.5358 24.57 47.5358 26.5C47.5358 28.39 46.0358 29.93 44.1658 30C44.0858 29.99 43.9958 29.99 43.9058 30" stroke="white" stroke-width="1.5" stroke-linecap="round" stroke-linejoin="round"/>
<path d="M45.9644 39C46.6844 38.85 47.3644 38.56 47.9244 38.13C49.4844 36.96 49.4844 35.03 47.9244 33.86C47.3744 33.44 46.7044 33.16 45.9944 33" stroke="white" stroke-width="1.5" stroke-linecap="round" stroke-linejoin="round"/>
<path d="M23.687 30C21.747 30 20.187 28.43 20.187 26.5C20.187 24.61 21.687 23.07 23.557 23C23.637 23.01 23.727 23.01 23.817 23" stroke="white" stroke-width="1.5" stroke-linecap="round" stroke-linejoin="round"/>
<path d="M22.0377 32.9999C21.3177 33.1499 20.6377 33.4399 20.0777 33.8699C18.5177 35.0399 18.5177 36.9699 20.0777 38.1399C20.6277 38.5599 21.2977 38.8399 22.0077 38.9999" stroke="white" stroke-width="1.5" stroke-linecap="round" stroke-linejoin="round"/>
<path d="M17.6851 30C15.7451 30 14.1851 28.43 14.1851 26.5C14.1851 24.61 15.6851 23.07 17.5551 23C17.6351 23.01 17.7251 23.01 17.8151 23" stroke="white" stroke-width="1.5" stroke-linecap="round" stroke-linejoin="round"/>
<path d="M16.0358 32.9999C15.3158 33.1499 14.6358 33.4399 14.0758 33.8699C12.5158 35.0399 12.5158 36.9699 14.0758 38.1399C14.6258 38.5599 15.2958 38.8399 16.0058 38.9999" stroke="white" stroke-width="1.5" stroke-linecap="round" stroke-linejoin="round"/>
</svg>
