<svg width="24" height="24" viewBox="0 0 24 24" fill="none" xmlns="http://www.w3.org/2000/svg">
<path d="M12 12C14.7614 12 17 9.76142 17 7C17 4.23858 14.7614 2 12 2C9.23858 2 7 4.23858 7 7C7 9.76142 9.23858 12 12 12Z" stroke="white" stroke-linecap="round" stroke-linejoin="round"/>
<path d="M3.40991 22C3.40991 18.13 7.25991 15 11.9999 15C12.9599 15 13.8899 15.13 14.7599 15.37" stroke="white" stroke-linecap="round" stroke-linejoin="round"/>
<path d="M22.5 15.5L18.3 19.7L16.7 17.3L13.5 20.5" stroke="white" stroke-linecap="round" stroke-linejoin="round"/>
<path d="M20.5 15.5H22.5V17.5" stroke="white" stroke-linecap="round" stroke-linejoin="round"/>
<path d="M22.5 15.5L18.3 19.7L16.7 17.3L13.5 20.5" stroke="white" stroke-linecap="round" stroke-linejoin="round"/>
<path d="M20.5 15.5H22.5V17.5" stroke="white" stroke-linecap="round" stroke-linejoin="round"/>
</svg>
