<svg width="102" height="65" viewBox="0 0 102 65" fill="none" xmlns="http://www.w3.org/2000/svg">
<rect x="0.488037" y="0.325684" width="101.252" height="64.088" rx="32.044" fill="white"/>
<path d="M51.1134 24.9658C52.4764 24.9658 53.5814 23.8608 53.5814 22.4978C53.5814 21.1348 52.4764 20.0299 51.1134 20.0299C49.7504 20.0299 48.6455 21.1348 48.6455 22.4978C48.6455 23.8608 49.7504 24.9658 51.1134 24.9658Z" fill="#1EA7FF"/>
<path d="M56.6047 35.6148L53.4951 27.8162C53.1002 26.8414 52.1624 26.212 51.1012 26.1997C50.0524 26.1997 49.1022 26.829 48.7073 27.8162L45.5978 35.6148C45.2893 36.4293 45.8939 37.3054 46.7577 37.3054H48.6456V43.4752C48.6456 44.1539 49.2009 44.7091 49.8796 44.7091H52.3475C53.0262 44.7091 53.5815 44.1539 53.5815 43.4752V37.3054H55.4695C56.3332 37.3054 56.9379 36.4293 56.6047 35.6148Z" fill="#1EA7FF"/>
</svg>
